<?xml version="1.0" encoding="UTF-8"?><svg xmlns="http://www.w3.org/2000/svg" xmlns:xlink="http://www.w3.org/1999/xlink" version="1.1" id="Layer_1" x="0px" y="0px" viewBox="0 0 128 128" xml:space="preserve"><style type="text/css">.st0{fill:#FFFFFF;} .st1{fill:none;stroke:#FFFFFF;stroke-width:4;stroke-linecap:round;stroke-linejoin:round;stroke-miterlimit:10;}</style><path d="M108.4 96.7c0-.2-.1-.4-.1-.5L96 40.1c-.2-1-.6-1.9-1.2-2.7L69.4 2.7C68.2 1 66.2 0 64.1 0h-.2c-2.1 0-4.1 1-5.3 2.7L33.2 37.4c-.6.8-1 1.7-1.2 2.6L19.7 96.2c0 .1 0 .2-.1.3-.2.9-.1 1.9.1 2.8.1.4.3.9.5 1.3.6 1.1 1.4 2 2.4 2.7L60.4 127c1.1.7 2.3 1 3.5 1h.1c1.2 0 2.5-.4 3.5-1l36.7-23 2-1.4c.6-.5 1.1-1.2 1.5-1.9.2-.4.4-.9.5-1.4.3-.9.3-1.7.2-2.6z"/><path class="st0" d="M103.5 96.6L91.4 41c-.1-.3-.2-.5-.3-.8L65.6 5.5c-.1-.2-.3-.3-.4-.4l-.6-.3c-.2-.1-.4-.1-.6-.1-.2 0-.4 0-.6.1l-.6.3c-.1.1-.3.2-.4.4L37 40.2c-.1.1-.1.2-.2.2v.1c-.1.2-.1.3-.2.5L24.3 97.2v.9c0 .2.1.3.2.4.2.3.4.6.7.8L62.9 123c.1.1.3.1.4.2.2.1.4.1.7.1.2 0 .4 0 .7-.1.1 0 .3-.1.4-.2l37.4-23.5c.4-.2.8-.5 1.1-.9.3-.6.3-1.4-.1-2zm-6.6-11.7L84.6 63.3l4.5-14.1 7.8 35.7zM66 12.8l21.2 29-5.3 16.7L66 30.6V12.8zm-2 22.4l16.2 28.6-10.1 31.8H57.9L47.8 63.7 64 35.2zm-2-22.4v17.8l-15.9 28-5.3-16.8 21.2-29zM39 49.1l4.5 14.2-12.4 21.8 7.9-36zm6.1 19.4l8.6 27.1h-24l15.4-27.1zM33.2 99.6H55l5.4 17.1-27.2-17.1zM64 114.7l-4.8-15.1h9.6L64 114.7zm3.6 2L73 99.6h21.8l-27.2 17.1zm6.7-21.1l8.6-27.2 15.4 27.2h-24z" fill="#FFF"/><metadata><rdf:RDF xmlns:rdf="http://www.w3.org/1999/02/22-rdf-syntax-ns#" xmlns:rdfs="http://www.w3.org/2000/01/rdf-schema#" xmlns:dc="http://purl.org/dc/elements/1.1/"><rdf:Description about="https://iconscout.com/legal#licenses" dc:title="eos" dc:description="eos" dc:publisher="Iconscout" dc:date="2018-01-14" dc:format="image/svg+xml" dc:language="en"><dc:creator><rdf:Bag><rdf:li>Icon Mafia</rdf:li></rdf:Bag></dc:creator></rdf:Description></rdf:RDF></metadata></svg>