<svg enable-background="new 0 0 50 50" viewBox="0 0 50 50" xmlns="http://www.w3.org/2000/svg"><g fill="#fff"><path d="m33.2 8.1-13.7 6"/><path d="m19.5 14.1-6.7 27.7"/><path d="m33.2 8.1.7 9.6"/><path d="m34.2 23-21.4 18.8"/><path d="m33.2 8.1-4.7 7.7"/><path d="m28.5 15.8-22.8 12.5"/><path d="m19.5 14.1-13.8 14.2"/><path d="m34.2 23-6.1 18.9"/><path d="m5.7 28.3 22.4 13.6"/><path d="m28.5 15.8-22.8 12.5"/><path d="m28.5 15.8-.4 26.1"/><path d="m8.8 34.4 4 7.4"/><path d="m28.1 41.9-15.3-.1"/><path d="m45.4 19.6c0 .2-.1.3-.2.3h-7.4c-.1 0-.2-.2-.2-.3 0-.2.1-.3.2-.3h7.4c.1 0 .2.1.2.3z"/><path d="m41.5 15.8c.2 0 .4.1.4.2v7.4c0 .1-.2.2-.4.2s-.4-.1-.4-.2v-7.4c0-.1.1-.2.4-.2z"/><path d="m19.8 14.3c-.1.1-.3.2-.4.1s-.2-.3-.1-.4.3-.2.4-.1c.1 0 .2.2.1.4z"/><path d="m6 28.5c-.1.1-.3.2-.4.1s-.2-.3-.1-.4c0-.2.2-.2.3-.1.2 0 .2.2.2.4z"/><path d="m28.3 42c-.1.1-.3.2-.4.1s-.2-.3-.1-.4.3-.2.4-.1c.2.1.2.3.1.4z"/><path d="m9.8 34.8c-.3.6-1.1.7-1.7.4s-.7-1.1-.4-1.7 1.1-.7 1.7-.4c.6.4.8 1.1.4 1.7z"/><path d="m6.9 28.7c-.3.6-1.1.7-1.7.4s-.7-1.1-.4-1.7 1.1-.7 1.7-.4c.5.4.7 1.1.4 1.7z"/><path d="m28.8 42.3c-.3.6-1.1.7-1.7.4s-.7-1.1-.4-1.7 1.1-.8 1.7-.4.8 1.2.4 1.7z"/><path d="m13.8 42.5c-.3.6-1.1.7-1.7.4s-.7-1.1-.4-1.7 1.1-.7 1.7-.4.7 1.1.4 1.7z"/><path d="m20.4 14.8c-.3.6-1.1.7-1.7.4s-.7-1.1-.4-1.7 1.1-.7 1.7-.4c.6.4.8 1.1.4 1.7z"/><path d="m34.1 8.8c-.3.6-1.1.7-1.7.4s-.7-1.1-.4-1.7 1.1-.7 1.7-.4c.6.4.8 1.1.4 1.7z"/><path d="m35 18.4c-.3.6-1.1.8-1.7.4-.6-.3-.7-1.1-.4-1.7s1.1-.7 1.7-.4c.5.3.7 1.1.4 1.7z"/><path d="m35.4 23.5c-.3.6-1.1.7-1.7.4s-.7-1.1-.4-1.7 1.1-.7 1.7-.4c.6.4.8 1.1.4 1.7z"/><path d="m19.1 10.9h14.8v.5h-14.8z" transform="matrix(.9066 -.4221 .4221 .9066 -2.2159 12.2015)"/><path d="m10.6 33.8h.5v8.7h-.5z" transform="matrix(.8826 -.4702 .4702 .8826 -16.6502 9.5647)"/><path d="m16.6 21.9h.5v26.1h-.5z" transform="matrix(.5301 -.8479 .8479 .5301 -21.7213 30.7367)"/><path d="m12.9 41.6h15.2v.5h-15.2z" transform="matrix(1 -.0038021 .0038021 1 -.159 .078081)"/><path d="m9.2 32.1h28.8v.5h-28.8z" transform="matrix(.7479 -.6638 .6638 .7479 -15.5204 23.8366)"/><path d="m1.7 27.8h28.8v.5h-28.8z" transform="matrix(.2297 -.9733 .9733 .2297 -14.8709 37.32)"/><path d="m4.3 21.7h25.9v.5h-25.9z" transform="matrix(.88 -.475 .475 .88 -8.3424 10.8148)"/><path d="m15.2 28.5h25.9v.5h-25.9z" transform="matrix(.02629786 -.9997 .9997 .02629786 -1.3322 56.1778)"/><path d="m26.1 11.7h9.4v.5h-9.4z" transform="matrix(.5141 -.8577 .8577 .5141 4.7298 32.2776)"/><path d="m33.3 8.1h.5v9.7h-.5z" transform="matrix(.9976 -.0691 .0691 .9976 -.8131 2.3516)"/><path d="m2.9 20.8h19.6v.5h-19.6z" transform="matrix(.705 -.7092 .7092 .705 -11.2019 15.1807)"/><path d="m21.5 31.9h19.6v.5h-19.6z" transform="matrix(.3084 -.9513 .9513 .3084 -8.9006 51.9881)"/></g></svg>